{"title":"Titanic-720p MP4 AAC x264 BRRip 1997-CC","uid":7665942,"size":3750712326,"categoryP":"video","categoryS":"hd___movies","magnet":"?xt=urn:btih:b87c22034580e3475e3cd290724b009f47201c93&amp;dn=Titanic-720p+MP4+AAC+x264+BRRip+1997-CC&amp;tr=udp%3A%2F%2Ftracker.openbittorrent.com%3A80&amp;tr=udp%3A%2F%2Fopen.demonii.com%3A1337&amp;tr=udp%3A%2F%2Ftracker.coppersurfer.tk%3A6969&amp;tr=udp%3A%2F%2Fexodus.desync.com%3A6969","seeders":0,"leechers":1,"uploader":"Caveman44","files":34,"time":1348437467,"description":" &lt;a href=&quot;http://www.imdb.com/title/tt0120338/&quot; rel=&quot;nofollow&quot; target=&quot;_NEW&quot;&gt;http://www.imdb.com/title/tt0120338/&lt;/a&gt;\n\nSource: Titanic.1997.720p.BluRay.X264-AMIABLE Thanks!\n\nSubs: Arabic, Brazilian, Bulgarian, Danish, Dutch, English, Finnish, Greek, Indonesian, Italian, Norwegian, Portuguese, Romanian, Slovenian, Spanish, Swedish and Vietnamese.\n\nSample and Screens included.\n\nGeneral\nComplete name                            : Titanic-720p MP4 AAC x264 BRRip 1997-CC.mp4\nFormat                                   : MPEG-4\nFormat profile                           : Base Media\nCodec ID                                 : isom\nFile size                                : 3.45 GiB\nDuration                                 : 3h 14mn\nOverall bit rate mode                    : Variable\nOverall bit rate                         : 2 538 Kbps\nEncoded date                             : UTC 2012-09-13 14:31:48\n\nVideo\nID                                       : 1\nFormat                                   : AVC\nFormat/Info                              : Advanced Video Codec\nFormat profile                           : &lt;a class=&quot;__cf_email__&quot; href=&quot;/cdn-cgi/l/email-protection&quot; data-cfemail=&quot;6921000e0129255a4758&quot;&gt;[email&amp;#160;protected]&lt;/a&gt;&lt;script cf-hash='f9e31' type=&quot;text/javascript&quot;&gt;\n/* &lt;![CDATA[ */!function(){try{var t=&quot;currentScript&quot;in document?document.currentScript:function(){for(var t=document.getElementsByTagName(&quot;script&quot;),e=t.length;e--;)if(t[e].getAttribute(&quot;cf-hash&quot;))return t[e]}();if(t&amp;&amp;t.previousSibling){var e,r,n,i,c=t.previousSibling,a=c.getAttribute(&quot;data-cfemail&quot;);if(a){for(e=&quot;&quot;,r=parseInt(a.substr(0,2),16),n=2;a.length-n;n+=2)i=parseInt(a.substr(n,2),16)^r,e+=String.fromCharCode(i);e=document.createTextNode(e),c.parentNode.replaceChild(e,c)}}}catch(u){}}();/* ]]&gt; */&lt;/script&gt;\nFormat settings, CABAC                   : Yes\nFormat settings, ReFrames                : 5 frames\nCodec ID                                 : avc1\nCodec ID/Info                            : Advanced Video Coding\nDuration                                 : 3h 14mn\nBit rate mode                            : Variable\nBit rate                                 : 2 217 Kbps\nMaximum bit rate                         : 25.0 Mbps\nWidth                                    : 1 280 pixels\nHeight                                   : 544 pixels\nDisplay aspect ratio                     : 2.35:1\nFrame rate mode                          : Constant\nFrame rate                               : 23.976 fps\nColor space                              : YUV\nChroma subsampling                       : 4:2:0\nBit depth                                : 8 bits\nScan type                                : Progressive\nBits/(Pixel*Frame)                       : 0.133\nStream size                              : 3.02 GiB (87%)\nTitle                                    : ripbot\nWriting library                          : x264 core 104 r1683 62997d6\n\nAudio\nID                                       : 2\nFormat                                   : AAC\nFormat/Info                              : Advanced Audio Codec\nFormat profile                           : LC\nCodec ID                                 : 40\nDuration                                 : 3h 14mn\nBit rate mode                            : Variable\nBit rate                                 : 317 Kbps\nMaximum bit rate                         : 336 Kbps\nChannel(s)                               : 6 channels\nChannel positions                        : Front: L C R, Side: L R, LFE\nSampling rate                            : 48.0 KHz\nCompression mode                         : Lossy\nStream size                              : 442 MiB (13%)\nTitle                                    : Imported with GPAC 0.4.6-DEV (internal rev. 5)\n\nEnjoy...\n\nRequested by cmptrluvr's. \n\nComing up soon: Batman Begins &amp; The Dark Knight, Harvey, Starsky &amp; Hutch, Taking of Pelham and more...","torrent":{"xt":"urn:btih:b87c22034580e3475e3cd290724b009f47201c93","amp;dn":"Titanic-720p+MP4+AAC+x264+BRRip+1997-CC","amp;tr":["udp%3A%2F%2Ftracker.openbittorrent.com%3A80","udp%3A%2F%2Fopen.demonii.com%3A1337","udp%3A%2F%2Ftracker.coppersurfer.tk%3A6969","udp%3A%2F%2Fexodus.desync.com%3A6969"],"infoHash":"b87c22034580e3475e3cd290724b009f47201c93","infoHashBuffer":{"type":"Buffer","data":[184,124,34,3,69,128,227,71,94,60,210,144,114,75,0,159,71,32,28,147]},"announce":[],"urlList":[]}}